Coordinates
version=1
nRows=22
nColumns=24
inDegrees=yes

Units are S.I. units (second, meters, Newtons, ...)
Angles are in degrees.

endheader
time	pelvis_tilt	pelvis_list	pelvis_rotation	pelvis_tx	pelvis_ty	pelvis_tz	hip_flexion_r	hip_adduction_r	hip_rotation_r	knee_angle_r	ankle_angle_r	subtalar_angle_r	mtp_angle_r	hip_flexion_l	hip_adduction_l	hip_rotation_l	knee_angle_l	ankle_angle_l	subtalar_angle_l	mtp_angle_l	lumbar_extension	lumbar_bending	lumbar_rotation
      7.50000000	      0.72181186	      6.46007964	      1.66396068	      0.19249844	      0.88846723	      0.18390843	     16.83765916	     -9.74901121	     -7.97822446	    -65.79685439	      1.37838805	     -7.95600089	      0.00000000	      7.84877013	     13.55943374	      9.64123041	    -17.32160605	     13.77251689	     -4.79974370	      0.00000000	    -19.89546661	     -3.65453992	     -9.38763228
      7.51000000	      0.62754406	      6.05910694	      1.63185477	      0.20361855	      0.88989024	      0.18412425	     18.23040377	     -9.27449190	     -8.05595884	    -64.73973640	      2.86153441	     -7.72456294	      0.00000000	      6.75986828	     13.07152609	      9.95236273	    -16.60711553	     14.02383773	     -4.87355480	      0.00000000	    -19.90825873	     -3.10460380	     -9.41731895
      7.52000000	      0.53704595	      5.76424032	      1.63391980	      0.21480178	      0.89104578	      0.18430530	     19.51980208	     -8.91271215	     -8.15159995	    -63.41527377	      4.44059388	     -7.01028804	      0.00000000	      5.64393764	     12.70255075	     10.32332214	    -15.85385470	     14.18941037	     -5.07617556	      0.00000000	    -19.91066250	     -2.68494761	     -9.55298819
      7.53000000	      0.41989121	      5.50719052	      1.56197893	      0.22590173	      0.89191146	      0.18476169	     20.77732714	     -8.48924116	     -8.10181091	    -61.80476414	      5.89529442	     -6.18135517	      0.00000000	      4.58241861	     12.35735849	     10.69206644	    -15.12047060	     14.31607012	     -5.33877462	      0.00000000	    -19.91665728	     -2.37447199	     -9.61997959
      7.54000000	      0.26837175	      5.31645702	      1.47589857	      0.23705017	      0.89241147	      0.18532288	     21.98099952	     -8.09810833	     -8.02163095	    -59.92517131	      7.25298217	     -5.28208708	      0.00000000	      3.58135267	     12.07874507	     10.96467757	    -14.42415042	     14.49241757	     -5.59839417	      0.00000000	    -19.86842251	     -2.17030207	     -9.62521600
      7.55000000	      0.11592143	      5.21889678	      1.38875870	      0.24819728	      0.89263358	      0.18602426	     23.08657790	     -7.74931382	     -7.85728551	    -57.77555455	      8.48954794	     -4.33040431	      0.00000000	      2.59042738	     11.89529100	     11.31431172	    -13.75101987	     14.60265038	     -5.94445299	      0.00000000	    -19.84011157	     -2.11506852	     -9.70332118
      7.56000000	     -0.04921966	      5.18750988	      1.33697755	      0.25945571	      0.89255425	      0.18677315	     24.07815025	     -7.46267046	     -7.72460681	    -55.34511566	      9.56766727	     -3.45956896	      0.00000000	      1.62126169	     11.77759382	     11.62843749	    -13.10878637	     14.74923130	     -6.25815558	      0.00000000	    -19.76298968	     -2.14978112	     -9.76969573
      7.57000000	     -0.19954672	      5.23199965	      1.32363021	      0.27076487	      0.89225392	      0.18755626	     24.91835221	     -7.23928796	     -7.57726983	    -52.62469737	     10.49388248	     -2.67053728	      0.00000000	      0.63285305	     11.73491240	     12.02459550	    -12.47992356	     14.85063406	     -6.60282895	      0.00000000	    -19.70819901	     -2.27345689	     -9.92590485
      7.58000000	     -0.28093381	      5.33004885	      1.38189124	      0.28210604	      0.89185698	      0.18835704	     25.52099235	     -7.06324926	     -7.42776572	    -49.59076461	     11.24329331	     -1.99281351	      0.00000000	     -0.44061045	     11.74004229	     12.62396155	    -11.86040689	     14.86812517	     -7.06586008	      0.00000000	    -19.75777554	     -2.44942334	    -10.25129978
      7.59000000	     -0.39074194	      5.45284986	      1.50174586	      0.29361171	      0.89125158	      0.18917497	     25.97317114	     -6.92317834	     -7.32470835	    -46.22973325	     11.82017373	     -1.45897803	      0.00000000	     -1.47375302	     11.75325065	     13.12145032	    -11.28535400	     14.95564365	     -7.35712980	      0.00000000	    -19.72842178	     -2.66150201	    -10.57789839
      7.60000000	     -0.63671828	      5.61440394	      1.61447369	      0.30513549	      0.89028103	      0.19013321	     26.42508595	     -6.78145051	     -7.09066121	    -42.57056032	     12.26442319	     -0.97096544	      0.00000000	     -2.30887737	     11.79503934	     13.42230216	    -10.80260208	     15.11160078	     -7.41221535	      0.00000000	    -19.54731697	     -2.94048549	    -10.88901229
      7.61000000	     -0.58187621	      5.76722229	      1.93675079	      0.31681078	      0.88970638	      0.19084040	     26.27320674	     -6.73947208	     -7.13596042	    -38.51467472	     12.56532400	     -0.59816390	      0.00000000	     -3.53652143	     11.79528658	     14.13623456	    -10.26180507	     15.11818696	     -7.69004165	      0.00000000	    -19.73126176	     -3.14014418	    -11.50638781
      7.62000000	     -0.67000317	      5.94974187	      2.22886914	      0.32855355	      0.88879142	      0.19163838	     26.11974663	     -6.69153630	     -7.00042961	    -34.18643529	     12.71567242	     -0.20401075	      0.00000000	     -4.55250155	     11.82121783	     14.63699961	     -9.82866371	     15.17472249	     -7.79272365	      0.00000000	    -19.72914733	     -3.39190774	    -12.03924506
      7.63000000	     -0.83912840	      6.13827049	      2.59333609	      0.34043904	      0.88767207	      0.19237124	     25.86827268	     -6.68527014	     -6.86610924	    -29.61132802	     12.67073949	      0.16019566	      0.00000000	     -5.45028928	     11.84089901	     15.10519682	     -9.48535968	     15.28629129	     -7.74549828	      0.00000000	    -19.60076478	     -3.64229198	    -12.58617132
      7.64000000	     -0.78860734	      6.35822628	      3.00707931	      0.35238993	      0.88677843	      0.19296929	     25.21637462	     -6.76090815	     -6.75388817	    -24.87213808	     12.47883348	      0.65656840	      0.00000000	     -6.55788035	     11.87625893	     15.59611445	     -9.21928079	     15.30937205	     -7.74148958	      0.00000000	    -19.76802050	     -3.86680370	    -13.25481550
      7.65000000	     -0.84682697	      6.61082766	      3.49927327	      0.36450223	      0.88561560	      0.19345556	     24.58945895	     -6.92762413	     -6.69577393	    -20.14669370	     12.04381722	      1.10222157	      0.00000000	     -7.50365602	     11.93763992	     16.12705048	     -9.08470102	     15.38737100	     -7.61902208	      0.00000000	    -19.76952306	     -4.11958663	    -13.93315944
      7.66000000	     -1.00705155	      6.94721502	      4.10003702	      0.37668959	      0.88419598	      0.19379236	     24.05874923	     -7.26201754	     -6.80104243	    -15.65256232	     11.47437832	      1.60280126	      0.00000000	     -8.26452714	     12.08541617	     16.68240260	     -9.14560983	     15.49381274	     -7.37326604	      0.00000000	    -19.64876637	     -4.46063204	    -14.68681125
      7.67000000	     -0.87057483	      7.20139411	      4.66008025	      0.38917763	      0.88312427	      0.19404956	     23.21594621	     -7.53609815	     -7.25376246	    -11.51560685	     10.84202065	      2.48446616	      0.00000000	     -9.33612328	     12.11719734	     17.28477859	     -9.25165812	     15.56110400	     -7.19695041	      0.00000000	    -19.84476761	     -4.62812660	    -15.37616598
      7.68000000	     -0.79929455	      7.48377224	      5.27001580	      0.40174795	      0.88190351	      0.19425434	     22.55698527	     -7.86522500	     -7.97241781	     -8.00957526	     10.29739111	      3.57761985	      0.00000000	    -10.23885527	     12.18141543	     17.87722658	     -9.57812793	     15.64069116	     -6.94855970	      0.00000000	    -19.94769048	     -4.82614559	    -16.05517484
      7.69000000	     -0.75326719	      7.71833909	      5.87286800	      0.41442882	      0.88067092	      0.19453916	     22.06572530	     -8.12543869	     -8.75684192	     -5.23542137	      9.80192686	      4.62068991	      0.00000000	    -11.01015741	     12.19581532	     18.40745119	    -10.10539484	     15.73917533	     -6.56954966	      0.00000000	    -19.99669604	     -4.98343893	    -16.61980279
      7.70000000	     -0.61165172	      7.85746283	      6.39610957	      0.42723515	      0.87960675	      0.19494455	     21.63412289	     -8.25249460	     -9.42248374	     -3.27485046	      9.47957973	      5.60164471	      0.00000000	    -11.76900191	     12.11551719	     18.78492053	    -10.81925021	     15.82349455	     -6.11121262	      0.00000000	    -20.13670026	     -5.02675226	    -17.08715766
      7.71000000	     -0.44298132	      7.94600536	      6.81583172	      0.44007673	      0.87860283	      0.19545254	     21.35502461	     -8.30729231	     -9.70330099	     -2.17763753	      9.32846663	      6.24704158	      0.00000000	    -12.41757266	     12.01489574	     18.98995458	    -11.75813429	     15.88056914	     -5.55528302	      0.00000000	    -20.30370699	     -5.00716868	    -17.39805804
